<?xml version="1.0" encoding="UTF-8"?>
<svg xmlns="http://www.w3.org/2000/svg" xmlns:xlink="http://www.w3.org/1999/xlink" viewBox="0 0 192 192" width="192px" height="192px">
<g id="surface195132035">
<path style=" stroke:none;fill-rule:nonzero;fill:rgb(0%,0%,0%);fill-opacity:0.4;" d="M 96 16 C 51.910156 16 16 51.910156 16 96 C 16 140.089844 51.910156 176 96 176 C 140.089844 176 176 140.089844 176 96 C 176 51.910156 140.089844 16 96 16 Z M 96 32 C 131.441406 32 160 60.558594 160 96 C 160 131.441406 131.441406 160 96 160 C 60.558594 160 32 131.441406 32 96 C 32 60.558594 60.558594 32 96 32 Z M 96 48 C 69.585938 48 48 69.585938 48 96 L 64 96 C 64 78.238281 78.238281 64 96 64 Z M 96 48 "/>
</g>
</svg>
