<svg xmlns="http://www.w3.org/2000/svg" enable-background="new 0 0 1000 1000" viewBox="0 0 1000 1000"><path fill="gray" d="M713.5,400.4c8.4,1.2,16.8,1.8,25.1,1.8c86.7,0,162.6-63.9,175.2-152.1c13.8-96.7-53.7-186.5-150.3-200.2
			c-96.7-13.8-186.5,53.7-200.2,150.3C549.4,296.8,616.9,386.7,713.5,400.4z M602.8,205.8c9.7-68.3,68.5-117.8,135.6-117.8
			c6.4,0,12.9,0.5,19.4,1.4c74.8,10.7,127,80.2,116.4,155c-10.7,74.8-80.2,127-155,116.4C644.3,350.2,592.1,280.6,602.8,205.8z"/><path fill="gray" d="M666 234.7c1 .1 1.9.2 2.8.2 9.8 0 18.4-7.2 19.8-17.2 2-14 10-26.3 22-33.8 9.4-5.8 12.2-18.2 6.4-27.6-5.8-9.4-18.2-12.2-27.6-6.4-22 13.7-36.8 36.4-40.5 62.1C647.5 223 655.1 233.1 666 234.7zM367.7 436.2c1 0 2-.1 3-.2 8.6-1.3 17.4-2 26.2-2 11 0 20-9 20-20s-9-20-20-20c-10.8 0-21.7.8-32.3 2.4-10.9 1.7-18.4 11.9-16.8 22.8C349.5 429.1 358 436.2 367.7 436.2zM204.4 626.6c11 0 20-9 20-20 0-51.1 22.5-99.3 61.6-132.2 8.5-7.1 9.6-19.7 2.4-28.2-7.1-8.5-19.7-9.6-28.2-2.4-48.2 40.5-75.9 99.9-75.9 162.8C184.4 617.6 193.4 626.6 204.4 626.6zM371.5 177.1c0 39.9 32.5 72.4 72.4 72.4s72.4-32.5 72.4-72.4-32.5-72.4-72.4-72.4S371.5 137.1 371.5 177.1zM476.4 177.1c0 17.9-14.6 32.4-32.4 32.4-17.9 0-32.4-14.6-32.4-32.4 0-17.9 14.6-32.4 32.4-32.4C461.9 144.6 476.4 159.2 476.4 177.1zM836.2 417.4c-53.2 0-96.5 43.3-96.5 96.5s43.3 96.5 96.5 96.5 96.5-43.3 96.5-96.5S889.4 417.4 836.2 417.4zM836.2 570.4c-31.2 0-56.5-25.4-56.5-56.5s25.4-56.5 56.5-56.5c31.2 0 56.5 25.4 56.5 56.5S867.4 570.4 836.2 570.4z"/><path fill="gray" d="M697,656.5c2.7-16.3,4.1-33,4.1-49.9c0-81.2-31.6-157.6-89.1-215c-57.4-57.4-133.8-89.1-215-89.1
			s-157.6,31.6-215,89.1c-57.4,57.4-89.1,133.8-89.1,215c0,81.2,31.6,157.6,89.1,215s133.8,89.1,215,89.1
			c54.2,0,106.3-14.1,152-40.6c1,1.5,2.1,3,3.2,4.4c22.3,29.6,54.7,48.8,91.4,54.1c6.6,0.9,13.3,1.4,19.8,1.4
			c29.8,0,58.7-9.6,83-27.8c29.6-22.3,48.8-54.7,54.1-91.4s-4.2-73.2-26.4-102.9C754.8,682,727.8,664.2,697,656.5z M760.9,805
			c-3.7,26.1-17.4,49.2-38.5,65.1s-47.1,22.5-73.2,18.8c-53.9-7.7-91.5-57.8-83.9-111.7c3.7-26.1,17.4-49.2,38.5-65.1
			c17.3-13,37.9-19.8,59.1-19.8c4.7,0,9.4,0.3,14.1,1c26.1,3.7,49.2,17.4,65.1,38.5C758,752.9,764.7,778.9,760.9,805z M583.7,419.9
			C633.6,469.7,661,536,661,606.6c0,15.5-1.3,30.9-3.9,45.8c-27.8,1.2-54.5,10.6-77.3,27.7c-29.6,22.3-48.8,54.7-54.1,91.4
			c-3,21.4-1.1,42.7,5.4,62.6c-40.2,23.8-86.2,36.5-134.2,36.5c-70.5,0-136.8-27.5-186.7-77.3s-77.3-116.2-77.3-186.7
			c0-70.5,27.5-136.8,77.3-186.7c49.9-49.9,116.2-77.3,186.7-77.3C467.5,342.5,533.8,370,583.7,419.9z"/><path fill="gray" d="M607.7,803.2c1,0.1,1.9,0.2,2.8,0.2c9.8,0,18.4-7.2,19.8-17.2c1.3-9.1,6.5-17.2,14.4-22.1
			c9.4-5.8,12.2-18.2,6.4-27.6s-18.2-12.2-27.6-6.4c-17.9,11.2-29.9,29.5-32.8,50.4C589.1,791.5,596.7,801.6,607.7,803.2z"/><g display="none"><line x2="998.7" y1=".6" y2="1000" fill="none" stroke="#4d4d4d" stroke-miterlimit="10"/><line x2="998.7" y1="1000" y2=".6" fill="none" stroke="#4d4d4d" stroke-miterlimit="10"/><ellipse cx="500" cy="499.7" fill="none" stroke="#4d4d4d" stroke-miterlimit="10" rx="449.1" ry="449.4"/><ellipse cx="500" cy="499.7" fill="none" stroke="#4d4d4d" stroke-miterlimit="10" rx="198.4" ry="198.5"/><ellipse cx="500" cy="499.7" fill="none" stroke="#4d4d4d" stroke-miterlimit="10" rx="269.2" ry="269.3"/><line x1="50.9" x2="50.9" y2="999.4" fill="none" stroke="#4d4d4d" stroke-miterlimit="10"/><line x1="230.8" x2="230.8" y2="999.4" fill="none" stroke="#4d4d4d" stroke-miterlimit="10"/><line x1="499.4" x2="499.4" y2="999.4" fill="none" stroke="#4d4d4d" stroke-miterlimit="10"/><line x1="1000" y1="949.1" y2="949.1" fill="none" stroke="#4d4d4d" stroke-miterlimit="10"/><line x1="1000" y1="50.3" y2="50.3" fill="none" stroke="#4d4d4d" stroke-miterlimit="10"/><line x1="769.2" x2="769.2" y2="999.4" fill="none" stroke="#4d4d4d" stroke-miterlimit="10"/><line x1="999.4" x2=".6" y1="230.3" y2="230.3" fill="none" stroke="#4d4d4d" stroke-miterlimit="10"/><line x1="999.4" x2=".6" y1="499" y2="499" fill="none" stroke="#4d4d4d" stroke-miterlimit="10"/><line x1="999.4" x2=".6" y1="769" y2="769" fill="none" stroke="#4d4d4d" stroke-miterlimit="10"/><line x1="949.1" x2="949.1" y2="999.4" fill="none" stroke="#4d4d4d" stroke-miterlimit="10"/></g></svg>