<svg fill="#000000" xmlns="http://www.w3.org/2000/svg"  viewBox="0 0 48 48" width="144px" height="144px"><path d="M 20.476562 4.9785156 A 1.50015 1.50015 0 0 0 19 6.5 L 19 41.5 A 1.50015 1.50015 0 1 0 22 41.5 L 22 6.5 A 1.50015 1.50015 0 0 0 20.476562 4.9785156 z M 27.476562 4.9785156 A 1.50015 1.50015 0 0 0 26 6.5 L 26 41.5 A 1.50015 1.50015 0 1 0 29 41.5 L 29 6.5 A 1.50015 1.50015 0 0 0 27.476562 4.9785156 z M 9.484375 16.984375 A 1.50015 1.50015 0 0 0 8.4394531 19.560547 L 11.878906 23 L 3.5 23 A 1.50015 1.50015 0 1 0 3.5 26 L 11.878906 26 L 8.4394531 29.439453 A 1.50015 1.50015 0 1 0 10.560547 31.560547 L 16.560547 25.560547 A 1.50015 1.50015 0 0 0 16.560547 23.439453 L 10.560547 17.439453 A 1.50015 1.50015 0 0 0 9.484375 16.984375 z M 38.470703 16.986328 A 1.50015 1.50015 0 0 0 37.439453 17.439453 L 31.439453 23.439453 A 1.50015 1.50015 0 0 0 31.439453 25.560547 L 37.439453 31.560547 A 1.50015 1.50015 0 1 0 39.560547 29.439453 L 36.121094 26 L 44.5 26 A 1.50015 1.50015 0 1 0 44.5 23 L 36.121094 23 L 39.560547 19.560547 A 1.50015 1.50015 0 0 0 38.470703 16.986328 z"/></svg>