<svg fill="#000000" xmlns="http://www.w3.org/2000/svg"  viewBox="0 0 468 468" width="468px" height="468px"><path d="M 167.61914 0.01171875 C 163.82954 0.15105615 160.11145 1.6322813 157.21289 4.3710938 C 138.28089 21.324094 128.33695 47.385469 130.50195 72.605469 C 111.04795 90.124469 98.804219 111.72962 94.949219 135.14062 L 65.138672 134.88281 L 64.861328 166.88086 L 94.919922 167.14258 C 99.353922 194.42858 115.56083 218.56706 137.04883 235.53906 C 126.70283 252.97906 121 273.03023 121 293.49023 L 121 436 L 96 436 L 96 351 L 64 351 L 64 438.00586 C 64 454.54486 77.458 468 94 468 L 332.78711 468 C 341.62311 468 349 460.52936 349 451.69336 L 349 293.49023 C 349 273.03123 343.29813 252.97806 332.95312 235.53906 C 354.54613 218.48306 370.76205 194.466 375.12305 167 L 404 167 L 404 135 L 374.98633 135 C 371.33033 113 360.47153 93.11475 343.39453 76.34375 C 346.09053 48.02875 333.46758 21.111234 311.39258 3.6152344 C 305.78358 -0.95976563 297.80169 -1.2056094 291.92969 3.0253906 C 279.32169 11.855391 267.74786 22.863375 261.75586 37.359375 C 245.26086 33.778375 226.94658 33.202 210.51758 37.375 C 203.60058 21.35 191.18928 10.411062 176.23828 2.1640625 C 173.55684 0.606125 170.56661 -0.096654785 167.61914 0.01171875 z M 171.15039 36.792969 C 178.01839 42.485969 182.52263 50.513969 183.76562 59.542969 C 185.09363 69.186969 195.04961 75.522578 204.34961 72.642578 C 226.95561 65.645578 246.72144 65.609562 269.39844 72.601562 C 280.07044 75.891563 291.00969 67.070359 290.05469 55.943359 C 289.61069 50.771359 293.66158 43.633953 300.39258 37.126953 C 309.95558 48.645953 313.8533 63.959187 310.6543 78.992188 C 309.4313 84.735187 311.45287 90.686094 315.92188 94.496094 C 334.26488 110.13909 344.36719 130.30253 344.36719 151.26953 C 344.36819 197.93253 295.306 235.89453 235 235.89453 C 174.694 235.89453 125.63086 197.93253 125.63086 151.26953 C 125.63086 128.90853 136.9265 107.77286 157.4375 91.755859 C 162.2265 88.016859 164.48267 81.887547 163.26367 75.935547 C 160.43067 62.102547 163.36239 48.099969 171.15039 36.792969 z M 164.23438 252.38086 C 207.99938 273.20586 261.97128 273.20686 305.73828 252.38086 C 312.97328 264.78086 317 278.99523 317 293.49023 L 317 436 L 284 436 L 284 369 L 252 369 L 252 436 L 216 436 L 216 369 L 184 369 L 184 436 L 153 436 L 153 293.49023 C 153 278.99523 156.99938 264.78086 164.23438 252.38086 z M 64 295 L 64 327 L 96 327 L 96 295 L 64 295 z"/></svg>