<?xml version="1.0" encoding="UTF-8"?>
<svg xmlns="http://www.w3.org/2000/svg" xmlns:xlink="http://www.w3.org/1999/xlink" viewBox="0 0 512 512" width="512px" height="512px">
<g id="surface198535744">
<path style=" stroke:none;fill-rule:nonzero;fill:rgb(0%,0%,0%);fill-opacity:1;" d="M 444 188 C 450.800781 188 456 182.800781 456 176 L 456 88 C 456 81.199219 450.800781 76 444 76 L 356 76 C 349.199219 76 344 81.199219 344 88 C 344 94.800781 349.199219 100 356 100 L 414.398438 100 L 311.601562 199.199219 C 309.199219 201.601562 308 204.800781 308 208 C 308 211.199219 309.199219 214 311.199219 216.398438 C 316 221.199219 323.601562 221.199219 328 216.800781 L 432 116.398438 L 432 176 C 432 182.800781 437.199219 188 444 188 Z M 344 448 C 344 454.800781 349.199219 460 356 460 L 444 460 C 450.800781 460 456 454.800781 456 448 L 456 360 C 456 353.199219 450.800781 348 444 348 C 437.199219 348 432 353.199219 432 360 L 432 419.199219 L 296 283.199219 C 278.398438 265.601562 255.601562 256 230.800781 256 L 68 256 C 61.199219 256 56 261.199219 56 268 C 56 274.800781 61.199219 280 68 280 L 230.800781 280 C 248.800781 280 266 287.199219 278.800781 300 L 414.800781 436 L 356 436 C 349.199219 436 344 441.199219 344 448 Z M 344 448 "/>
</g>
</svg>
