<?xml version="1.0" encoding="UTF-8"?>
<svg xmlns="http://www.w3.org/2000/svg" xmlns:xlink="http://www.w3.org/1999/xlink" viewBox="0 0 250 250" width="250px" height="250px">
<g id="surface195516684">
<path style=" stroke:none;fill-rule:nonzero;fill:rgb(0%,0%,0%);fill-opacity:0.47843;" d="M 54.84375 15 C 53.730469 15.117188 52.675781 15.625 51.875 16.40625 C 51.875 16.40625 15 50.683594 15 92.1875 C 15 114.316406 23.632812 136.054688 45.625 149.6875 C 48.007812 159.53125 49.726562 168.398438 48.4375 176.25 C 47.988281 178.085938 48.613281 180 50.039062 181.230469 C 51.464844 182.460938 53.476562 182.773438 55.214844 182.050781 C 56.953125 181.328125 58.144531 179.6875 58.28125 177.8125 C 60.996094 161.289062 54.394531 145.546875 50.625 128.125 C 46.855469 110.703125 45.390625 91.71875 56.25 67.8125 C 57.011719 66.25 56.914062 64.414062 55.976562 62.949219 C 55.058594 61.503906 53.457031 60.605469 51.71875 60.625 C 49.726562 60.664062 47.929688 61.894531 47.1875 63.75 C 35.3125 89.863281 36.972656 111.757812 40.9375 130.15625 C 41.269531 131.699219 41.679688 133.046875 42.03125 134.53125 C 29.726562 123.242188 25 108.398438 25 92.1875 C 25 60.527344 49.472656 33.90625 55.15625 27.96875 C 60.15625 33.710938 75.78125 52.265625 79.21875 73.125 C 81.5625 87.34375 77.753906 99.414062 72.8125 108.4375 C 70.351562 112.949219 67.617188 116.679688 65.3125 119.375 C 63.007812 122.070312 60.878906 124.023438 60.625 124.21875 C 58.964844 125.195312 58.007812 127.011719 58.164062 128.925781 C 58.300781 130.859375 59.550781 132.5 61.347656 133.203125 C 63.125 133.886719 65.15625 133.496094 66.5625 132.1875 C 68.125 131.015625 70.273438 129.101562 72.96875 125.9375 C 75.664062 122.773438 78.710938 118.496094 81.5625 113.28125 C 87.265625 102.851562 91.835938 88.417969 89.0625 71.5625 C 84.257812 42.382812 58.90625 16.5625 58.90625 16.5625 C 57.871094 15.449219 56.367188 14.882812 54.84375 15 Z M 144.53125 100.3125 C 141.09375 100.3125 137.617188 100.546875 134.0625 100.9375 C 96.230469 105.039062 78.574219 126.152344 71.71875 145.78125 C 64.863281 165.410156 67.8125 183.90625 67.8125 183.90625 C 67.8125 183.964844 67.8125 184.003906 67.8125 184.0625 C 52.480469 200.097656 45.625 214.21875 45.625 214.21875 C 44.570312 215.839844 44.53125 217.929688 45.527344 219.570312 C 46.542969 221.230469 48.417969 222.148438 50.351562 221.933594 C 52.265625 221.71875 53.90625 220.429688 54.53125 218.59375 C 54.53125 218.59375 72.304688 181.992188 115.625 161.5625 C 145.175781 147.617188 183.4375 151.875 183.4375 151.875 C 185.3125 152.363281 187.304688 151.71875 188.535156 150.214844 C 189.765625 148.730469 190.039062 146.660156 189.199219 144.902344 C 188.378906 143.144531 186.621094 142.03125 184.6875 142.03125 C 184.6875 142.03125 174.609375 140.742188 160.46875 141.40625 C 146.328125 142.070312 128.007812 144.667969 111.40625 152.5 C 97.695312 158.964844 86.367188 166.914062 77.1875 175 C 77.050781 168.671875 77.539062 159.21875 81.09375 149.0625 C 87.03125 132.089844 100.507812 114.707031 135.15625 110.9375 C 181.191406 105.9375 216.796875 138.535156 223.59375 145.15625 C 218.730469 153.730469 191.289062 198.613281 140.3125 204.21875 C 111.835938 207.34375 86.875 194.0625 86.875 194.0625 C 85.292969 192.949219 83.222656 192.851562 81.523438 193.789062 C 79.84375 194.746094 78.867188 196.582031 79.003906 198.515625 C 79.140625 200.449219 80.390625 202.109375 82.1875 202.8125 C 82.1875 202.8125 109.296875 217.597656 141.40625 214.0625 C 203.652344 207.207031 234.375 146.40625 234.375 146.40625 C 235.3125 144.550781 235 142.304688 233.59375 140.78125 C 233.59375 140.78125 196.074219 100.292969 144.53125 100.3125 Z M 144.53125 100.3125 "/>
</g>
</svg>
