<?xml version="1.0" encoding="UTF-8"?>
<svg xmlns="http://www.w3.org/2000/svg" xmlns:xlink="http://www.w3.org/1999/xlink" viewBox="0 0 144 144" width="144px" height="144px">
<g id="surface195855160">
<path style=" stroke:none;fill-rule:nonzero;fill:rgb(0%,0%,0%);fill-opacity:0.47843;" d="M 22.453125 17.953125 C 20.621094 17.953125 18.972656 19.0625 18.285156 20.761719 C 17.59375 22.460938 18.003906 24.40625 19.320312 25.679688 L 55.316406 61.679688 C 56.445312 62.855469 58.121094 63.332031 59.699219 62.917969 C 61.277344 62.507812 62.507812 61.277344 62.917969 59.699219 C 63.332031 58.121094 62.855469 56.445312 61.679688 55.316406 L 25.679688 19.320312 C 24.835938 18.445312 23.667969 17.953125 22.453125 17.953125 Z M 100.5 18 C 98.878906 17.976562 97.367188 18.828125 96.550781 20.230469 C 95.730469 21.632812 95.730469 23.367188 96.550781 24.769531 C 97.367188 26.171875 98.878906 27.023438 100.5 27 L 110.636719 27 L 73.210938 64.421875 C 69.558594 68.078125 67.5 73.039062 67.5 78.210938 L 67.5 124.5 C 67.476562 126.121094 68.328125 127.632812 69.730469 128.449219 C 71.132812 129.269531 72.867188 129.269531 74.269531 128.449219 C 75.671875 127.632812 76.523438 126.121094 76.5 124.5 L 76.5 78.210938 C 76.5 75.425781 77.609375 72.753906 79.574219 70.785156 L 117 33.363281 L 117 43.5 C 116.976562 45.121094 117.828125 46.632812 119.230469 47.449219 C 120.632812 48.269531 122.367188 48.269531 123.769531 47.449219 C 125.171875 46.632812 126.023438 45.121094 126 43.5 L 126 22.5 C 126 20.015625 123.984375 18 121.5 18 Z M 100.5 18 "/>
</g>
</svg>
