<svg fill="#000000" xmlns="http://www.w3.org/2000/svg"  viewBox="0 0 48 48" width="144px" height="144px"><path d="M 11.478516 5 A 1.50015 1.50015 0 0 0 10.439453 5.4394531 L 4.4394531 11.439453 A 1.50015 1.50015 0 1 0 6.5605469 13.560547 L 10 10.121094 L 10 30.5 A 1.50015 1.50015 0 1 0 13 30.5 L 13 10.121094 L 16.439453 13.560547 A 1.50015 1.50015 0 1 0 18.560547 11.439453 L 12.560547 5.4394531 A 1.50015 1.50015 0 0 0 11.478516 5 z M 36.478516 5 A 1.50015 1.50015 0 0 0 35.439453 5.4394531 L 29.439453 11.439453 A 1.50015 1.50015 0 1 0 31.560547 13.560547 L 35 10.121094 L 35 30.5 A 1.50015 1.50015 0 1 0 38 30.5 L 38 10.121094 L 41.439453 13.560547 A 1.50015 1.50015 0 1 0 43.560547 11.439453 L 37.560547 5.4394531 A 1.50015 1.50015 0 0 0 36.478516 5 z M 23.976562 16.978516 A 1.50015 1.50015 0 0 0 22.5 18.5 L 22.5 37.878906 L 19.060547 34.439453 A 1.50015 1.50015 0 1 0 16.939453 36.560547 L 22.939453 42.560547 A 1.50015 1.50015 0 0 0 25.060547 42.560547 L 31.060547 36.560547 A 1.50015 1.50015 0 1 0 28.939453 34.439453 L 25.5 37.878906 L 25.5 18.5 A 1.50015 1.50015 0 0 0 23.976562 16.978516 z"/></svg>