<?xml version="1.0" encoding="UTF-8"?>
<svg xmlns="http://www.w3.org/2000/svg" xmlns:xlink="http://www.w3.org/1999/xlink" viewBox="0 0 144 144" width="144px" height="144px">
<g id="surface195819257">
<path style=" stroke:none;fill-rule:nonzero;fill:rgb(0%,0%,0%);fill-opacity:0.47843;" d="M 103.566406 129.0625 C 104.734375 129.046875 105.855469 128.574219 106.679688 127.746094 L 127.679688 106.746094 C 128.855469 105.617188 129.332031 103.941406 128.917969 102.363281 C 128.507812 100.785156 127.277344 99.554688 125.699219 99.144531 C 124.125 98.734375 122.445312 99.207031 121.316406 100.382812 L 108 113.699219 L 108 19.5625 C 108.023438 17.941406 107.171875 16.429688 105.769531 15.613281 C 104.367188 14.796875 102.632812 14.796875 101.230469 15.613281 C 99.828125 16.429688 98.976562 17.941406 99 19.5625 L 99 113.699219 L 85.683594 100.382812 C 84.554688 99.207031 82.878906 98.734375 81.300781 99.144531 C 79.722656 99.554688 78.492188 100.785156 78.082031 102.363281 C 77.667969 103.941406 78.144531 105.617188 79.320312 106.746094 L 100.320312 127.746094 C 101.179688 128.605469 102.347656 129.082031 103.566406 129.0625 Z M 40.566406 129.0625 C 41.734375 129.046875 42.855469 128.574219 43.683594 127.746094 L 64.683594 106.746094 C 65.855469 105.617188 66.332031 103.941406 65.917969 102.363281 C 65.507812 100.785156 64.277344 99.554688 62.699219 99.144531 C 61.125 98.734375 59.445312 99.207031 58.320312 100.382812 L 45 113.699219 L 45 19.5625 C 45.023438 17.941406 44.171875 16.429688 42.769531 15.613281 C 41.367188 14.796875 39.632812 14.796875 38.230469 15.613281 C 36.828125 16.429688 35.976562 17.941406 36 19.5625 L 36 113.699219 L 22.683594 100.382812 C 21.554688 99.207031 19.878906 98.734375 18.300781 99.144531 C 16.722656 99.554688 15.492188 100.785156 15.082031 102.363281 C 14.667969 103.941406 15.144531 105.617188 16.320312 106.746094 L 37.320312 127.746094 C 38.179688 128.605469 39.347656 129.082031 40.566406 129.0625 Z M 40.566406 129.0625 "/>
</g>
</svg>
