<?xml version="1.0" encoding="UTF-8"?>
<svg xmlns="http://www.w3.org/2000/svg" xmlns:xlink="http://www.w3.org/1999/xlink" viewBox="0 0 250 250" width="250px" height="250px">
<g id="surface195846534">
<path style=" stroke:none;fill-rule:nonzero;fill:rgb(0%,0%,0%);fill-opacity:0.47843;" d="M 9.0625 35 C 3.535156 35.253906 -0.722656 39.941406 -0.46875 45.46875 C -0.214844 50.996094 4.472656 55.253906 10 55 L 30 55 C 33.613281 55.058594 36.953125 53.164062 38.769531 50.039062 C 40.605469 46.933594 40.605469 43.066406 38.769531 39.960938 C 36.953125 36.835938 33.613281 34.941406 30 35 L 10 35 C 9.6875 34.980469 9.375 34.980469 9.0625 35 Z M 198.90625 39.84375 C 193.75 40.410156 189.882812 44.824219 190 50 L 190 173.4375 L 167.65625 151.09375 C 165.78125 149.121094 163.183594 147.988281 160.46875 147.96875 C 156.386719 147.929688 152.675781 150.390625 151.132812 154.179688 C 149.589844 157.96875 150.507812 162.304688 153.4375 165.15625 L 200 211.71875 L 246.5625 165.15625 C 249.160156 162.636719 250.195312 158.90625 249.257812 155.410156 C 248.320312 151.914062 245.566406 149.199219 242.070312 148.300781 C 238.554688 147.402344 234.84375 148.476562 232.34375 151.09375 L 210 173.4375 L 210 50 C 210.039062 47.285156 208.984375 44.6875 207.070312 42.773438 C 205.15625 40.859375 202.558594 39.804688 199.84375 39.84375 C 199.53125 39.824219 199.21875 39.824219 198.90625 39.84375 Z M 9.0625 75 C 3.535156 75.253906 -0.722656 79.941406 -0.46875 85.46875 C -0.214844 90.996094 4.472656 95.253906 10 95 L 50 95 C 53.613281 95.058594 56.953125 93.164062 58.769531 90.039062 C 60.605469 86.933594 60.605469 83.066406 58.769531 79.960938 C 56.953125 76.835938 53.613281 74.941406 50 75 L 10 75 C 9.6875 74.980469 9.375 74.980469 9.0625 75 Z M 9.0625 115 C 3.535156 115.253906 -0.722656 119.941406 -0.46875 125.46875 C -0.214844 130.996094 4.472656 135.253906 10 135 L 70 135 C 73.613281 135.058594 76.953125 133.164062 78.769531 130.039062 C 80.605469 126.933594 80.605469 123.066406 78.769531 119.960938 C 76.953125 116.835938 73.613281 114.941406 70 115 L 10 115 C 9.6875 114.980469 9.375 114.980469 9.0625 115 Z M 9.0625 155 C 3.535156 155.253906 -0.722656 159.941406 -0.46875 165.46875 C -0.214844 170.996094 4.472656 175.253906 10 175 L 90 175 C 93.613281 175.058594 96.953125 173.164062 98.769531 170.039062 C 100.605469 166.933594 100.605469 163.066406 98.769531 159.960938 C 96.953125 156.835938 93.613281 154.941406 90 155 L 10 155 C 9.6875 154.980469 9.375 154.980469 9.0625 155 Z M 9.0625 195 C 3.535156 195.253906 -0.722656 199.941406 -0.46875 205.46875 C -0.214844 210.996094 4.472656 215.253906 10 215 L 125 215 C 128.613281 215.058594 131.953125 213.164062 133.769531 210.039062 C 135.605469 206.933594 135.605469 203.066406 133.769531 199.960938 C 131.953125 196.835938 128.613281 194.941406 125 195 L 10 195 C 9.6875 194.980469 9.375 194.980469 9.0625 195 Z M 9.0625 195 "/>
</g>
</svg>
