<?xml version="1.0" encoding="UTF-8"?>
<svg xmlns="http://www.w3.org/2000/svg" xmlns:xlink="http://www.w3.org/1999/xlink" viewBox="0 0 256 256" width="256px" height="256px">
<g id="surface195565680">
<path style=" stroke:none;fill-rule:nonzero;fill:rgb(0%,0%,0%);fill-opacity:0.47843;" d="M 72 36.75 L 66.25 42.25 L 26.25 82.25 L 37.75 93.75 L 64 67.5 L 64 116 C 64 135.78125 80.21875 152 100 152 C 111.125 152 120 160.875 120 172 L 120 224 L 136 224 L 136 172 C 136 152.21875 119.78125 136 100 136 C 88.875 136 80 127.125 80 116 L 80 67.5 L 106.25 93.75 L 117.75 82.25 L 77.75 42.25 Z M 184 36.75 L 178.25 42.25 L 138.25 82.25 L 149.75 93.75 L 176 67.5 L 176 116 C 176 127.03125 167.03125 136 156 136 C 149.03125 136 142.53125 138.0625 137 141.5 C 140.375 145.59375 143.125 150.1875 145 155.25 C 148.15625 153.15625 151.90625 152 156 152 C 175.84375 152 192 135.84375 192 116 L 192 67.5 L 218.25 93.75 L 229.75 82.25 L 189.75 42.25 Z M 184 36.75 "/>
</g>
</svg>
