<svg fill="#000000" xmlns="http://www.w3.org/2000/svg"  viewBox="0 0 50 50" width="500px" height="500px"><path d="M 7.90625 -0.03125 C 7.863281 -0.0234375 7.820313 -0.0117188 7.78125 0 C 7.316406 0.105469 6.988281 0.523438 7 1 L 7 14.5625 L 3.40625 11 C 3.199219 10.777344 2.898438 10.664063 2.59375 10.6875 C 2.203125 10.726563 1.871094 10.988281 1.746094 11.355469 C 1.617188 11.726563 1.71875 12.136719 2 12.40625 L 7.15625 17.5625 L 7.28125 17.71875 C 7.328125 17.765625 7.382813 17.808594 7.4375 17.84375 L 8 18.40625 L 8.5625 17.84375 C 8.644531 17.78125 8.71875 17.707031 8.78125 17.625 L 14 12.40625 C 14.359375 12.128906 14.484375 11.644531 14.308594 11.226563 C 14.132813 10.808594 13.699219 10.5625 13.25 10.625 C 12.992188 10.660156 12.753906 10.792969 12.59375 11 L 9 14.5625 L 9 1 C 9.011719 0.710938 8.894531 0.433594 8.6875 0.238281 C 8.476563 0.0390625 8.191406 -0.0585938 7.90625 -0.03125 Z M 24.90625 -0.03125 C 24.863281 -0.0234375 24.820313 -0.0117188 24.78125 0 C 24.316406 0.105469 23.988281 0.523438 24 1 L 24 14.5625 L 20.40625 11 C 20.199219 10.777344 19.898438 10.664063 19.59375 10.6875 C 19.203125 10.726563 18.871094 10.988281 18.746094 11.355469 C 18.617188 11.726563 18.71875 12.136719 19 12.40625 L 24.21875 17.65625 C 24.28125 17.730469 24.355469 17.792969 24.4375 17.84375 L 25 18.40625 L 25.5625 17.84375 C 25.644531 17.78125 25.71875 17.707031 25.78125 17.625 L 31 12.40625 C 31.296875 12.164063 31.433594 11.777344 31.347656 11.402344 C 31.261719 11.03125 30.96875 10.738281 30.597656 10.652344 C 30.222656 10.566406 29.835938 10.703125 29.59375 11 L 26 14.5625 L 26 1 C 26.011719 0.710938 25.894531 0.433594 25.6875 0.238281 C 25.476563 0.0390625 25.191406 -0.0585938 24.90625 -0.03125 Z M 41.90625 -0.03125 C 41.863281 -0.0234375 41.820313 -0.0117188 41.78125 0 C 41.316406 0.105469 40.988281 0.523438 41 1 L 41 14.5625 L 37.40625 11 C 37.199219 10.777344 36.898438 10.664063 36.59375 10.6875 C 36.203125 10.726563 35.871094 10.988281 35.746094 11.355469 C 35.617188 11.726563 35.71875 12.136719 36 12.40625 L 41.15625 17.5625 L 41.21875 17.65625 C 41.28125 17.730469 41.355469 17.792969 41.4375 17.84375 L 42 18.40625 L 42.5625 17.84375 C 42.644531 17.78125 42.71875 17.707031 42.78125 17.625 L 48 12.40625 C 48.296875 12.164063 48.433594 11.777344 48.347656 11.402344 C 48.261719 11.03125 47.96875 10.738281 47.597656 10.652344 C 47.222656 10.566406 46.835938 10.703125 46.59375 11 L 43 14.5625 L 43 1 C 43.011719 0.710938 42.894531 0.433594 42.6875 0.238281 C 42.476563 0.0390625 42.191406 -0.0585938 41.90625 -0.03125 Z M 0 24 L 0 26 L 50 26 L 50 24 Z M 14.90625 30.96875 C 14.863281 30.976563 14.820313 30.988281 14.78125 31 C 14.316406 31.105469 13.988281 31.523438 14 32 L 14 45.5625 L 10.40625 42 C 10.199219 41.777344 9.898438 41.664063 9.59375 41.6875 C 9.203125 41.726563 8.871094 41.988281 8.746094 42.355469 C 8.617188 42.726563 8.71875 43.136719 9 43.40625 L 14.28125 48.71875 C 14.328125 48.765625 14.382813 48.808594 14.4375 48.84375 L 15 49.40625 L 15.5625 48.84375 C 15.644531 48.78125 15.71875 48.707031 15.78125 48.625 L 21 43.40625 C 21.359375 43.128906 21.484375 42.644531 21.308594 42.226563 C 21.132813 41.808594 20.699219 41.5625 20.25 41.625 C 19.992188 41.660156 19.753906 41.792969 19.59375 42 L 16 45.5625 L 16 32 C 16.011719 31.710938 15.894531 31.433594 15.6875 31.238281 C 15.476563 31.039063 15.191406 30.941406 14.90625 30.96875 Z M 35.90625 30.96875 C 35.863281 30.976563 35.820313 30.988281 35.78125 31 C 35.316406 31.105469 34.988281 31.523438 35 32 L 35 45.5625 L 31.40625 42 C 31.199219 41.777344 30.898438 41.664063 30.59375 41.6875 C 30.203125 41.726563 29.871094 41.988281 29.746094 42.355469 C 29.617188 42.726563 29.71875 43.136719 30 43.40625 L 35.15625 48.5625 L 35.21875 48.65625 C 35.28125 48.730469 35.355469 48.792969 35.4375 48.84375 L 36 49.40625 L 36.5625 48.84375 C 36.644531 48.78125 36.71875 48.707031 36.78125 48.625 L 42 43.40625 C 42.296875 43.164063 42.433594 42.777344 42.347656 42.402344 C 42.261719 42.03125 41.96875 41.738281 41.597656 41.652344 C 41.222656 41.566406 40.835938 41.703125 40.59375 42 L 37 45.5625 L 37 32 C 37.011719 31.710938 36.894531 31.433594 36.6875 31.238281 C 36.476563 31.039063 36.191406 30.941406 35.90625 30.96875 Z"/></svg>