<svg fill="#000000" xmlns="http://www.w3.org/2000/svg"  viewBox="0 0 48 48" width="48px" height="48px"><path d="M 7.484375 5.984375 A 1.50015 1.50015 0 0 0 6.4394531 8.5605469 L 18.439453 20.560547 A 1.50015 1.50015 0 1 0 20.560547 18.439453 L 8.5605469 6.4394531 A 1.50015 1.50015 0 0 0 7.484375 5.984375 z M 33.5 6 A 1.50015 1.50015 0 1 0 33.5 9 L 36.878906 9 L 24.404297 21.474609 C 23.18619 22.692716 22.5 24.346877 22.5 26.070312 L 22.5 41.5 A 1.50015 1.50015 0 1 0 25.5 41.5 L 25.5 26.070312 C 25.5 25.141748 25.869498 24.251596 26.525391 23.595703 L 39 11.121094 L 39 14.5 A 1.50015 1.50015 0 1 0 42 14.5 L 42 7.5 A 1.50015 1.50015 0 0 0 40.5 6 L 33.5 6 z"/></svg>