<svg fill="#000000" xmlns="http://www.w3.org/2000/svg"  viewBox="0 0 24 24" width="384px" height="384px"><path d="M 1.75 0 C 0.785 0 0 0.785 0 1.75 L 0 22.25 C 0 23.215 0.785 24 1.75 24 L 22.25 24 C 23.215 24 24 23.215 24 22.25 L 24 1.75 C 24 0.785 23.215 0 22.25 0 L 1.75 0 z M 1.75 1.5 L 22.25 1.5 C 22.388 1.5 22.5 1.612 22.5 1.75 L 22.5 22.25 C 22.5 22.388 22.388 22.5 22.25 22.5 L 1.75 22.5 C 1.612 22.5 1.5 22.388 1.5 22.25 L 1.5 1.75 C 1.5 1.612 1.612 1.5 1.75 1.5 z M 12 2.9355469 C 7.002 2.9355469 2.9355469 6.8719375 2.9355469 11.710938 C 2.9355469 15.500938 5.4283281 18.8465 9.2363281 20.0625 C 9.3293281 20.0785 9.4227187 20.087891 9.5117188 20.087891 C 9.8067187 20.087891 10.073156 19.994359 10.285156 19.818359 C 10.542156 19.604359 10.689453 19.2835 10.689453 18.9375 L 10.679688 17.068359 C 10.678688 16.843359 10.575391 16.632234 10.400391 16.490234 C 10.226391 16.349234 9.9973906 16.294844 9.7753906 16.339844 C 8.2533906 16.656844 7.8942656 15.909891 7.8222656 15.712891 C 7.6862656 15.379891 7.531 15.113391 7.375 14.900391 C 8.426 15.787391 9.7773438 15.933953 10.402344 16.001953 C 10.822344 16.046953 11.184516 15.748891 11.228516 15.337891 C 11.272516 14.925891 10.976453 14.554766 10.564453 14.509766 C 8.6924531 14.307766 7.4453125 13.681062 7.4453125 11.289062 C 7.4453125 10.656062 7.66275 10.105344 8.09375 9.6523438 C 8.30675 9.4293438 8.3604688 9.0993125 8.2304688 8.8203125 C 8.2214687 8.8013125 8.0509687 8.4196406 8.1679688 7.8066406 C 8.4479688 7.8856406 8.887 8.0648437 9.5 8.4648438 C 9.679 8.5808437 9.8975156 8.6145469 10.103516 8.5605469 C 10.696516 8.4005469 11.333375 8.3184531 11.984375 8.3144531 C 12.644375 8.3184531 13.279047 8.4005469 13.873047 8.5605469 C 14.079047 8.6135469 14.299516 8.5798906 14.478516 8.4628906 C 15.090516 8.0608906 15.528828 7.8817813 15.798828 7.8007812 C 15.906828 8.3737813 15.768422 8.7635625 15.732422 8.8515625 C 15.620422 9.1245625 15.678859 9.4363906 15.880859 9.6503906 C 16.309859 10.105391 16.527344 10.657063 16.527344 11.289062 C 16.527344 13.680062 15.279297 14.304906 13.404297 14.503906 C 13.104297 14.535906 12.852625 14.74325 12.765625 15.03125 C 12.678625 15.32025 12.773859 15.634172 13.005859 15.826172 C 13.139859 15.937172 13.296875 16.240422 13.296875 16.732422 C 13.296875 17.449422 13.290109 18.072375 13.287109 18.484375 L 13.285156 18.931641 C 13.285156 19.279641 13.434406 19.601453 13.691406 19.814453 C 13.850406 19.946453 14.199984 20.153344 14.833984 20.027344 C 18.560984 18.849344 21.064453 15.506937 21.064453 11.710938 C 21.064453 6.8729375 16.998 2.9355469 12 2.9355469 z M 12 4.4355469 C 16.171 4.4355469 19.564453 7.6979844 19.564453 11.708984 C 19.564453 14.730984 17.635063 17.406938 14.789062 18.460938 C 14.792063 18.046938 14.796875 17.435422 14.796875 16.732422 C 14.796875 16.407422 14.754828 16.097406 14.673828 15.816406 C 16.089828 15.479406 18.027344 14.502063 18.027344 11.289062 C 18.027344 10.429062 17.764719 9.6338438 17.261719 8.9648438 C 17.373719 8.4608438 17.419109 7.6744687 17.037109 6.7304688 C 16.953109 6.5214687 16.779453 6.3609219 16.564453 6.2949219 C 16.333453 6.2219219 15.494547 6.0812969 13.935547 7.0292969 C 13.313547 6.8882969 12.661375 6.8165 11.984375 6.8125 C 11.313375 6.8165 10.661062 6.8882969 10.039062 7.0292969 C 8.4700625 6.0812969 7.6313438 6.2239219 7.4023438 6.2949219 C 7.1873438 6.3619219 7.0117344 6.5214688 6.9277344 6.7304688 C 6.5407344 7.6874688 6.5998906 8.48275 6.7128906 8.96875 C 6.2098906 9.63575 5.9453125 10.429063 5.9453125 11.289062 C 5.9453125 12.685063 6.3127969 13.65875 6.8417969 14.34375 C 6.6847969 14.22175 6.5626719 14.159672 6.5136719 14.138672 C 6.1476719 13.970672 5.7298281 14.133188 5.5488281 14.492188 C 5.3668281 14.850188 5.5161875 15.296188 5.8671875 15.492188 C 5.8791875 15.500187 6.1871094 15.678703 6.4121094 16.220703 C 6.6181094 16.880703 7.4285938 17.950063 9.1835938 17.914062 L 9.1855469 18.464844 C 6.3265469 17.365844 4.4355469 14.703938 4.4355469 11.710938 C 4.4355469 7.6999375 7.829 4.4355469 12 4.4355469 z"/></svg>