<svg fill="#000000" xmlns="http://www.w3.org/2000/svg"  viewBox="0 0 24 24" width="384px" height="384px"><path d="M 3 1 C 1.8969727 1 1 1.8969727 1 3 L 1 21 C 1 22.103027 1.8969727 23 3 23 L 21 23 C 22.103027 23 23 22.103027 23 21 L 23 3 C 23 1.8969727 22.103027 1 21 1 L 3 1 z M 3 2 L 21 2 C 21.55127 2 22 2.4487305 22 3 L 22 21 C 22 21.55127 21.55127 22 21 22 L 3 22 C 2.4487305 22 2 21.55127 2 21 L 2 3 C 2 2.4487305 2.4487305 2 3 2 z M 6 4 C 4.8969727 4 4 4.8969727 4 6 C 4 7.1030273 4.8969727 8 6 8 C 7.1030273 8 8 7.1030273 8 6 C 8 4.8969727 7.1030273 4 6 4 z M 6 5 C 6.5512695 5 7 5.4487305 7 6 C 7 6.5512695 6.5512695 7 6 7 C 5.4487305 7 5 6.5512695 5 6 C 5 5.4487305 5.4487305 5 6 5 z M 4.5 9 C 4.2236328 9 4 9.2236328 4 9.5 L 4 19.5 C 4 19.776367 4.2236328 20 4.5 20 L 7.5 20 C 7.7763672 20 8 19.776367 8 19.5 L 8 9.5 C 8 9.2236328 7.7763672 9 7.5 9 L 4.5 9 z M 9.5 9 C 9.2236328 9 9 9.2236328 9 9.5 L 9 19.5 C 9 19.776367 9.2236328 20 9.5 20 L 12.5 20 C 12.776367 20 13 19.776367 13 19.5 L 13 14 C 13 12.747559 13.560547 12 14.5 12 C 15.439453 12 16 12.747559 16 14 L 16 19.5 C 16 19.776367 16.223633 20 16.5 20 L 19.5 20 C 19.776367 20 20 19.776367 20 19.5 L 20 14 C 20 10.962402 18.233398 9 15.5 9 C 14.416016 9 13.650391 9.3056641 13 9.8144531 L 13 9.5 C 13 9.2236328 12.776367 9 12.5 9 L 9.5 9 z M 5 10 L 7 10 L 7 19 L 5 19 L 5 10 z M 10 10 L 12 10 L 12 11.001953 C 12 11.210938 12.130371 11.397949 12.326172 11.470703 C 12.521484 11.543945 12.743164 11.487305 12.878906 11.328125 C 13.622559 10.467285 14.260254 10 15.5 10 C 17.658691 10 19 11.532715 19 14 L 19 19 L 17 19 L 17 14 C 17 11.927734 15.744141 11 14.5 11 C 13.255859 11 12 11.927734 12 14 L 12 19 L 10 19 L 10 10 z"/></svg>